# Wavefront OBJ file
# Exported by Maverick Model 3D 1.3.12
# Fri Jul 22 19:50:09 2022

mtllib main.mtl

# 33 Vertices
v -147.419956 -108.552806 137.564576
v 138.426309 -108.552806 137.564576
v -151.017889 -27.149735 137.564576
v 134.828376 -27.149735 137.564576
v 138.426309 -108.552787 -136.894655
v -147.419956 -108.552787 -136.894655
v 134.828376 -27.149726 -136.894662
v -151.017889 -27.149726 -136.894662
v 123.521591 -105.907472 30.345135
v 131.6004 -105.907472 30.345135
v 123.521591 -42.962215 28.995529
v 131.6004 -42.962215 28.995529
v 131.6004 -105.907471 0.830821
v 123.52159 -105.907471 0.830821
v 131.6004 -42.962214 -0.518784
v 123.52159 -42.962214 -0.518785
v 0.277289 -103.211911 24.852747
v 0.277289 -103.211911 4.631286
v 0.277289 -47.079924 24.852747
v 0.277289 -47.079924 4.631286
v 123.521591 -56.070738 24.852747
v 123.521591 -102.419607 24.852747
v 123.521591 -46.28762 24.852747
v 123.521591 -52.220911 24.852747
v 123.52159 -97.413818 4.631286
v 123.52159 -98.022892 4.631286
v 123.521591 -52.324475 24.852747
v 123.52159 -102.419607 8.15564
v 123.52159 -102.419607 4.631286
v 123.52159 -96.475123 4.631286
v 123.52159 -46.28762 4.631286
v 123.52159 -92.636486 4.631286
v 123.521591 -46.28762 21.328394

# 174 Texture Coordinates
vt 1.0 0.0
vt 0.0 0.0
vt 0.0 1.0
vt 1.0 0.0
vt 0.0 0.0
vt 0.0 1.0
vt 1.0 0.0
vt 0.0 0.0
vt 0.0 1.0
vt 1.0 0.0
vt 0.0 0.0
vt 0.0 1.0
vt -4.867925 2.868852
vt 5.867925 -1.868852
vt -4.867925 -1.868852
vt -4.867925 2.868852
vt 5.867925 2.868852
vt 5.867925 -1.868852
vt 5.867925 2.868852
vt -4.867925 -1.868852
vt 5.867925 -1.868852
vt 5.867925 2.868852
vt -4.867925 2.868852
vt -4.867925 -1.868852
vt -4.886449 -1.734694
vt 5.886449 -1.734694
vt -4.886449 2.734694
vt 5.886449 -1.734694
vt 5.88645 2.734694
vt -4.886449 2.734694
vt 5.886449 -1.734694
vt -4.886449 -1.734694
vt 5.88645 2.734694
vt -4.886449 -1.734694
vt -4.886449 2.734694
vt 5.88645 2.734694
vt 1.0 0.0
vt 0.0 0.0
vt 0.0 1.0
vt 1.0 0.0
vt 0.0 0.0
vt 0.0 1.0
vt 1.0 0.0
vt 0.0 0.0
vt 0.0 1.0
vt 1.0 0.0
vt 0.0 0.0
vt 0.0 1.0
vt 0.0 1.0
vt 0.0 0.0
vt 1.0 0.0
vt 0.0 1.0
vt 0.0 0.0
vt 1.0 0.0
vt 0.0 1.0
vt 0.0 0.0
vt 1.0 0.0
vt 0.0 1.0
vt 0.0 0.0
vt 1.0 0.0
vt 0.0 1.0
vt 0.0 0.0
vt 1.0 0.0
vt 0.0 1.0
vt 0.0 0.0
vt 1.0 0.0
vt 0.0 1.0
vt 0.0 0.0
vt 1.0 0.0
vt 0.0 1.0
vt 0.0 0.0
vt 1.0 0.0
vt 0.0 1.0
vt 0.0 0.0
vt 1.0 0.0
vt 0.0 1.0
vt 0.0 0.0
vt 1.0 0.0
vt 1.0 0.0
vt 0.0 0.0
vt 0.0 1.0
vt 1.0 0.0
vt 0.0 0.0
vt 0.0 1.0
vt 1.0 0.0
vt 0.0 0.0
vt 0.0 1.0
vt 1.0 0.0
vt 0.0 0.0
vt 0.0 1.0
vt 1.0 0.0
vt 0.0 0.0
vt 0.0 1.0
vt 1.0 0.0
vt 0.0 0.0
vt 0.0 1.0
vt 1.0 0.0
vt 0.0 0.0
vt 0.0 1.0
vt 0.0 1.0
vt 0.0 0.0
vt 1.0 0.0
vt 0.0 1.0
vt 0.0 0.0
vt 1.0 0.0
vt 0.0 1.0
vt 0.0 0.0
vt 1.0 0.0
vt 0.0 1.0
vt 0.0 0.0
vt 1.0 0.0
vt 0.0 1.0
vt 0.0 0.0
vt 1.0 0.0
vt 0.0 1.0
vt 0.0 0.0
vt 1.0 0.0
vt 0.0 1.0
vt 0.0 0.0
vt 1.0 0.0
vt 1.0 0.0
vt 0.0 0.0
vt 0.0 1.0
vt 0.0 1.0
vt 0.0 0.0
vt 1.0 0.0
vt 0.0 1.0
vt 0.0 0.0
vt 1.0 0.0
vt 1.0 0.0
vt 0.0 0.0
vt 0.0 1.0
vt 1.0 0.0
vt 0.0 0.0
vt 0.0 1.0
vt 0.0 1.0
vt 0.0 0.0
vt 1.0 0.0
vt 0.0 1.0
vt 0.0 0.0
vt 1.0 0.0
vt 1.0 0.0
vt 0.0 0.0
vt 0.0 1.0
vt 1.0 0.0
vt 0.0 0.0
vt 0.0 1.0
vt 1.0 0.0
vt 0.0 0.0
vt 0.0 1.0
vt 0.0 1.0
vt 0.0 0.0
vt 1.0 0.0
vt 0.0 1.0
vt 0.0 0.0
vt 1.0 0.0
vt 0.0 1.0
vt 0.0 0.0
vt 1.0 0.0
vt 1.0 0.0
vt 0.0 0.0
vt 0.0 1.0
vt 1.0 0.0
vt 0.0 0.0
vt 0.0 1.0
vt 1.0 0.0
vt 0.0 0.0
vt 0.0 1.0
vt 1.0 0.0
vt 0.0 0.0
vt 0.0 1.0
vt 0.0 1.0
vt 0.0 0.0
vt 1.0 0.0

# 174 Vertex Normals
vn 0.0 -1.0 -0.0
vn -0.691319 -0.72255 -0.0
vn 0.0 -1.0 -0.0
vn -0.691319 -0.72255 -0.0
vn -0.691319 -0.72255 -0.0
vn 0.0 -1.0 -0.0
vn 0.0 1.0 0.0
vn 0.691319 0.72255 0.0
vn 0.0 1.0 0.0
vn 0.691319 0.72255 0.0
vn 0.691319 0.72255 0.0
vn 0.0 1.0 0.0
vn 0.0 0.0 -1.0
vn 0.0 0.0 -1.0
vn 0.0 -0.0 -1.0
vn 0.0 0.0 -1.0
vn 0.0 0.0 -1.0
vn 0.0 0.0 -1.0
vn 0.0 0.0 1.0
vn 0.0 0.0 1.0
vn 0.0 0.0 1.0
vn 0.0 0.0 1.0
vn 0.0 0.0 1.0
vn 0.0 0.0 1.0
vn 0.691319 0.72255 0.0
vn 0.691319 0.72255 0.0
vn 0.999025 0.044156 0.0
vn 0.691319 0.72255 0.0
vn 0.999025 0.044156 0.0
vn 0.999025 0.044156 0.0
vn -0.999025 -0.044156 0.0
vn -0.999025 -0.044156 0.0
vn -0.691319 -0.72255 -0.0
vn -0.999025 -0.044156 0.0
vn -0.691319 -0.72255 -0.0
vn -0.691319 -0.72255 -0.0
vn 0.0 0.021436 0.99977
vn 0.0 0.021436 0.99977
vn 0.0 0.021436 0.99977
vn 0.0 0.021436 0.99977
vn 0.0 0.021436 0.99977
vn 0.0 0.021436 0.99977
vn 0.0 -0.021436 -0.99977
vn 0.0 -0.021436 -0.99977
vn 0.0 -0.021436 -0.99977
vn 0.0 -0.021436 -0.99977
vn 0.0 -0.021436 -0.99977
vn 0.0 -0.021436 -0.99977
vn -1.0 0.0 -0.000048
vn -1.0 0.0 -0.000001
vn -1.0 0.0 -0.0
vn -1.0 0.0 -0.000048
vn -1.0 0.0 0.0
vn -1.0 0.0 -0.000142
vn 1.0 0.0 0.0
vn 1.0 0.0 0.0
vn 1.0 0.0 0.0
vn 1.0 0.0 0.0
vn 1.0 0.0 0.0
vn 1.0 0.0 0.0
vn 0.0 1.0 0.0
vn 0.0 1.0 0.0
vn 0.000001 1.0 0.0
vn 0.0 1.0 0.0
vn 0.0 1.0 0.0
vn 0.0 1.0 0.0
vn 0.0 -1.0 0.0
vn 0.0 -1.0 0.0
vn 0.0 -1.0 0.0
vn 0.0 -1.0 0.0
vn 0.0 -1.0 0.0
vn 0.0 -1.0 0.0
vn -1.0 0.0 -0.0
vn -1.0 0.0 -0.0
vn -1.0 0.0 -0.0
vn -1.0 0.0 -0.0
vn -1.0 0.0 -0.0
vn -1.0 0.0 -0.0
vn 0.0 0.0 1.0
vn 0.0 0.0 1.0
vn 0.0 0.0 1.0
vn 0.0 0.0 1.0
vn 0.0 0.0 1.0
vn 0.0 0.0 1.0
vn -0.006429 0.999979 0.0
vn -0.006429 0.999979 0.0
vn -0.006429 0.999979 -0.0
vn -0.006429 0.999979 0.0
vn -0.006429 0.999979 -0.0
vn -0.006429 0.999979 -0.0
vn 0.006429 -0.999979 0.0
vn 0.006429 -0.999979 0.0
vn 0.006429 -0.999979 0.0
vn 0.006429 -0.999979 0.0
vn 0.006429 -0.999979 0.0
vn 0.006429 -0.999979 0.0
vn 0.0 0.0 1.0
vn 0.0 0.0 1.0
vn 0.0 0.0 1.0
vn -1.0 0.0 -0.000048
vn -1.0 0.0 -0.000142
vn -1.0 0.0 -0.000142
vn -1.0 0.0 -0.000048
vn -1.0 0.0 -0.0
vn -1.0 0.0 0.0
vn -1.0 0.0 0.0
vn -1.0 0.0 0.0
vn -1.0 0.0 0.0
vn -1.0 0.0 0.0
vn -1.0 0.0 -0.0
vn -1.0 0.0 0.0
vn -1.0 0.0 -0.000048
vn -1.0 0.0 0.0
vn -1.0 0.0 0.0
vn -1.0 0.0 0.0
vn -1.0 0.0 0.0
vn -1.0 0.0 0.0
vn -1.0 0.0 0.0
vn -1.0 0.0 0.000001
vn -1.0 0.0 0.0
vn 0.0 0.0 1.0
vn 0.0 0.0 1.0
vn 0.0 0.0 1.0
vn -1.0 0.0 -0.000048
vn -1.0 0.0 -0.000142
vn -1.0 0.0 -0.000001
vn -1.0 0.0 0.0
vn -1.0 0.0 0.0
vn -1.0 0.0 0.0
vn -0.0 0.0 -1.0
vn -0.0 0.0 -1.0
vn -0.0 0.0 -1.0
vn 0.0 0.0 1.0
vn 0.0 0.0 1.0
vn 0.0 0.0 1.0
vn -1.0 0.0 0.0
vn -1.0 0.0 -0.0
vn -1.0 0.0 0.0
vn -1.0 0.0 0.0
vn -1.0 0.0 0.0
vn -1.0 0.0 0.0
vn -0.0 0.0 -1.0
vn -0.0 0.0 -1.0
vn -0.0 0.0 -1.0
vn -0.0 0.0 -1.0
vn -0.0 0.0 -1.0
vn -0.0 0.0 -1.0
vn -0.0 0.0 -1.0
vn -0.0 0.0 -1.0
vn -0.0 0.0 -1.0
vn -1.0 0.0 0.0
vn -1.0 0.0 0.0
vn -1.0 0.0 0.000001
vn -1.0 0.0 0.0
vn -1.0 0.0 0.0
vn -1.0 0.0 0.0
vn -1.0 0.0 0.0
vn -1.0 0.0 0.0
vn -1.0 0.0 0.0
vn 0.006429 -0.999979 0.0
vn 0.006429 -0.999979 0.0
vn 0.006429 -0.999979 0.0
vn -0.0 0.0 -1.0
vn -0.0 0.0 -1.0
vn -0.0 0.0 -1.0
vn -0.0 0.0 -1.0
vn -0.0 0.0 -1.0
vn -0.0 0.0 -1.0
vn -0.006429 0.999979 -0.0
vn -0.006429 0.999979 -0.0
vn -0.006429 0.999979 -0.0
vn -1.0 0.0 0.0
vn -1.0 0.0 0.0
vn -1.0 0.0 0.0

# 44 Ungrouped triangles

o ungrouped
g ungrouped

f 9/37/37 10/38/38 11/39/39
f 10/40/40 12/41/41 11/42/42
f 13/43/43 14/44/44 15/45/45
f 14/46/46 16/47/47 15/48/48
f 11/49/49 21/50/50 22/51/51
f 11/52/52 23/53/53 24/54/54
f 15/55/55 10/56/56 13/57/57
f 15/58/58 12/59/59 10/60/60
f 11/61/61 15/62/62 16/63/63
f 11/64/64 12/65/65 15/66/66
f 10/67/67 14/68/68 13/69/69
f 10/70/70 9/71/71 14/72/72
f 22/79/79 21/80/80 19/81/81
f 24/82/82 23/83/83 19/84/84
f 23/85/85 33/86/86 19/87/87
f 33/88/88 31/89/89 19/90/90
f 29/91/91 28/92/92 18/93/93
f 28/94/94 22/95/95 18/96/96
f 17/97/97 22/98/98 19/99/99
f 11/100/100 24/101/101 27/102/102
f 11/103/103 22/104/104 9/105/105
f 14/106/106 28/107/107 29/108/108
f 9/109/109 22/110/110 14/111/111
f 11/112/112 16/113/113 23/114/114
f 14/115/115 25/116/116 30/117/117
f 14/118/118 32/119/119 31/120/120
f 27/121/121 24/122/122 19/123/123
f 11/124/124 27/125/125 21/126/126
f 14/127/127 26/128/128 25/129/129
f 25/130/130 26/131/131 18/132/132
f 21/133/133 27/134/134 19/135/135
f 14/136/136 22/137/137 28/138/138
f 14/139/139 29/140/140 26/141/141
f 30/142/142 25/143/143 18/144/144
f 31/145/145 32/146/146 18/147/147
f 20/148/148 31/149/149 18/150/150
f 14/151/151 30/152/152 32/153/153
f 14/154/154 31/155/155 16/156/156
f 16/157/157 33/158/158 23/159/159
f 22/160/160 17/161/161 18/162/162
f 26/163/163 29/164/164 18/165/165
f 18/166/166 32/167/167 30/168/168
f 31/169/169 20/170/170 19/171/171
f 16/172/172 31/173/173 33/174/174
# ungrouped, 4 grouped triangles

o ungrouped
g ungrouped

f 8/1/1 7/2/2 3/3/3
f 7/4/4 4/5/5 3/6/6
f 5/7/7 6/8/8 2/9/9
f 6/10/10 1/11/11 2/12/12
# walls, 8 grouped triangles

usemtl wallpaper
o walls
g walls

f 3/13/13 2/14/14 1/15/15
f 3/16/16 4/17/17 2/18/18
f 7/19/19 6/20/20 5/21/21
f 7/22/22 8/23/23 6/24/24
f 1/25/25 6/26/26 3/27/27
f 6/28/28 8/29/29 3/30/30
f 5/31/31 2/32/32 7/33/33
f 2/34/34 4/35/35 7/36/36
# mirror, 2 grouped triangles

usemtl mirror
o mirror
g mirror

f 19/73/73 18/74/74 17/75/75
f 19/76/76 20/77/77 18/78/78
